HIERARCHY
ROOT pelvis
{
  OFFSET 0 100 0
  CHANNELS 6 Xposition Yposition Zposition Zrotation Xrotation Yrotation
  JOINT pelvis_right_femur
  {
    OFFSET -10.78128 -3.44521 -0.5502486
    CHANNELS 3 Zrotation Xrotation Yrotation
    JOINT right_femur_tibia
    {
      OFFSET -0.8047443 -44.0398 -0.1307829
      CHANNELS 3 Zrotation Xrotation Yrotation
      JOINT right_tibia_foot
      {
        OFFSET 3.006224 -47.83518 -5
        CHANNELS 3 Zrotation Xrotation Yrotation
        End Site
        {
          OFFSET 0 -5 15
        }
      }
    }
  }
  JOINT pelvis_left_femur
  {
    OFFSET 10.78128 -3.44521 -0.5502486
    CHANNELS 3 Zrotation Xrotation Yrotation
    JOINT left_femur_tibia
    {
      OFFSET 0.8047443 -44.0398 -0.1307829
      CHANNELS 3 Zrotation Xrotation Yrotation
      JOINT left_tibia_foot
      {
        OFFSET -4.370144 -48.10324 -4.275266
        CHANNELS 3 Zrotation Xrotation Yrotation
        End Site
        {
          OFFSET 0 -5 15
        }
      }
    }
  }
  JOINT pelvis_spine1
  {
    OFFSET 0 6.468898 -3.129235
    CHANNELS 3 Zrotation Xrotation Yrotation
    JOINT spine1
    {
      OFFSET 0 23.15396 4.99043
      CHANNELS 3 Zrotation Xrotation Yrotation
      JOINT spine2
      {
        OFFSET 0 20.79997 -5.064912
        CHANNELS 3 Zrotation Xrotation Yrotation
        JOINT neck
        {
          OFFSET 0 14.38658 9.616178
          CHANNELS 3 Zrotation Xrotation Yrotation
          End Site
          {
            OFFSET 0 20 0
          }
        }
      }
      JOINT right_manubrium
      {
        OFFSET -5.722621 16.35077 3.967754
        CHANNELS 3 Zrotation Xrotation Yrotation
        JOINT right_clavicle
        {
          OFFSET -13.16364 1.694482 -4.693211
          CHANNELS 3 Zrotation Xrotation Yrotation
          JOINT right_humerus
          {
            OFFSET -28.5034 -0.3100689 -2.792744
            CHANNELS 3 Zrotation Xrotation Yrotation
            JOINT right_radius
            {
              OFFSET -25.15693 0.02248979 -1.271978
              CHANNELS 3 Zrotation Xrotation Yrotation
              End Site
              {
                OFFSET -15 0 0
              }
            }
          }
        }
      }
      JOINT left_manubrium
      {
        OFFSET 5.722621 16.35077 3.967754
        CHANNELS 3 Zrotation Xrotation Yrotation
        JOINT left_clavicle
        {
          OFFSET 13.16364 1.694482 -4.693211
          CHANNELS 3 Zrotation Xrotation Yrotation
          JOINT left_humerus
          {
            OFFSET 29.39168 -1.063119 -2.237045
            CHANNELS 3 Zrotation Xrotation Yrotation
            JOINT left_radius
            {
              OFFSET 24.59957 -0.9528479 0.9047498
              CHANNELS 3 Zrotation Xrotation Yrotation
              End Site
              {
                OFFSET 15 -0 -0
              }
            }
          }
        }
      }
    }
  }
}
MOTION
Frames: 21
Frame Time: 0.0416666666667
-900.1955 94.39123 2977.034 -7.98906 -8.657448 -47.13609 0.6843454 -5.086367 -9.386269 -0 33.69986 -0 -20.46964 18.88112 5.325123 -4.599213 7.349287 -7.732736 -0 8.850035 -0 8.343632 -12.18726 17.96391 -1.277426 -2.500951 2.492489 -0.623704 15.75692 -5.756426 1.207033 23.74937 4.674244 3.061775 -20.80452 5.329152 -6.919505 -24.26437 10.78234 98.59605 12.79601 -14.75632 -0 0 10.29311 -25.79275 3.726727 12.23281 4.803605 -26.51915 -10.94424 -86.75002 4.256884 17.42826 0 0 -11.86686 21.31871 13.40752 -15.0955
-904.4235 94.62136 2981.777 -7.579164 -7.936948 -46.68599 1.112319 -9.551888 -9.709389 -0 28.18536 -0 -21.37011 18.2687 5.351007 -4.521562 10.20849 -7.801236 -0 10.89871 -0 8.754699 -12.71126 17.39401 -0.9692875 -2.643901 2.206218 -0.09563067 15.89128 -6.4547 1.106855 23.53152 4.649474 3.098493 -21.38679 5.235258 -6.918358 -23.99274 10.94825 99.29342 13.03367 -16.55347 -0 0 8.872915 -24.52147 3.729409 11.32796 5.038014 -27.76001 -11.10556 -86.2236 3.782377 16.17865 0 0 -14.50397 22.70823 13.50953 -16.72596
-908.7115 94.67381 2986.366 -7.267726 -7.228409 -46.39652 1.630275 -13.69955 -10.09192 -0 22.11567 -0 -22.4434 17.64076 5.464432 -4.345543 12.74377 -7.69209 -0 13.45658 -0 9.166204 -13.01763 16.7539 -0.6004576 -2.787796 1.962019 0.4263948 16.09296 -7.136491 1.002633 23.31538 4.570962 3.121933 -21.95739 5.07462 -7.031211 -23.81726 11.12602 100.0903 13.09643 -18.29058 -0 0 7.454599 -23.33612 3.685247 10.45172 5.23799 -29.07186 -11.32573 -85.73521 3.063377 15.03274 0 0 -17.11045 24.24411 13.52835 -18.5634
-913.1029 94.58841 2990.829 -7.089489 -6.634162 -46.27792 2.176414 -17.12695 -10.4461 -0 16.28499 -0 -23.4578 17.10712 5.571568 -4.12034 14.76636 -7.394938 -0 16.56497 -0 9.419015 -13.06567 16.05819 -0.2112584 -2.896824 1.777323 0.8805125 16.32013 -7.727497 0.9147169 23.13123 4.457438 3.127871 -22.41673 4.880808 -7.210988 -23.67277 11.29511 100.8868 12.99665 -19.81899 -0 0 6.127977 -22.39075 3.659266 9.691351 5.377113 -30.28002 -11.5681 -85.30461 2.257925 14.01309 0 0 -19.45198 25.64373 13.4392 -20.26767
-917.6438 94.44453 2995.227 -7.074298 -6.258657 -46.32178 2.705776 -19.36275 -10.66789 -0 11.52604 -0 -24.14169 16.7405 5.565011 -3.885886 16.0216 -6.893368 -0 20.26882 -0 9.331494 -12.79863 15.32884 0.1550818 -2.929054 1.67904 1.197647 16.52227 -8.141818 0.8655527 23.00884 4.329575 3.112238 -22.65604 4.692019 -7.39707 -23.49101 11.43369 101.5529 12.77926 -20.97139 -0 0 5.013519 -21.84346 3.737273 9.141343 5.430762 -31.18176 -11.78053 -84.95124 1.563923 13.15975 0 0 -21.26692 26.57504 13.25284 -21.43694
-922.3727 94.34291 2999.634 -7.221347 -6.149518 -46.50501 3.199998 -20.09145 -10.67434 -0 8.35395 -0 -24.29577 16.51115 5.366417 -3.654116 16.30021 -6.200758 -0 24.47597 -0 8.801806 -12.19085 14.61088 0.465232 -2.858181 1.692728 1.335297 16.65527 -8.321808 0.8681454 22.96097 4.204683 3.073867 -22.61525 4.538727 -7.531707 -23.23882 11.52795 101.9684 12.52567 -21.63222 -0 0 4.231267 -21.7678 3.982255 8.862119 5.39233 -31.63065 -11.9083 -84.69357 1.153741 12.53165 0 0 -22.37537 26.80445 13.01358 -21.78015
-927.3042 94.36809 3004.109 -7.478216 -6.252137 -46.79876 3.665264 -19.34621 -10.43903 -0 6.682288 -0 -23.89299 16.24486 4.96528 -3.398149 15.54242 -5.390141 -0 28.84043 -0 7.891843 -11.29354 13.98024 0.7060496 -2.692501 1.831925 1.306456 16.69482 -8.272744 0.9163416 22.97094 4.092152 3.01595 -22.3307 4.43256 -7.576687 -22.94983 11.57913 102.06 12.34383 -21.7934 -0 0 3.869451 -22.08376 4.392969 8.84651 5.283201 -31.60964 -11.90952 -84.55354 1.11168 12.20521 0 0 -22.76976 26.32157 12.77478 -21.26384
-932.4198 94.55427 3008.678 -7.761309 -6.444106 -47.17742 4.108992 -17.46687 -10.006 -0 5.989038 -0 -23.08416 15.72283 4.432921 -3.07686 13.86374 -4.5757 -0 32.8129 -0 6.804006 -10.23202 13.52294 0.8803242 -2.471748 2.090352 1.167871 16.64334 -8.053736 0.9884258 23.00346 3.993668 2.945422 -21.91522 4.366474 -7.526267 -22.71101 11.59928 101.8199 12.32158 -21.53448 -0 0 3.96293 -22.60408 4.901106 9.032199 5.141128 -31.22177 -11.77266 -84.55496 1.409926 12.25194 0 0 -22.58179 25.32594 12.57628 -20.10533
-937.6725 94.87827 3013.331 -8.001753 -6.617993 -47.62224 4.520108 -14.86497 -9.464255 -0 5.766959 -0 -22.09692 14.83343 3.888743 -2.672181 11.47981 -3.859542 -0 35.84735 -0 5.76672 -9.150488 13.3006 0.9938029 -2.243719 2.444263 0.9787364 16.52391 -7.733847 1.061107 23.02888 3.90736 2.870481 -21.48713 4.325587 -7.404362 -22.61277 11.60059 101.2933 12.48364 -20.95019 -0 0 4.495395 -23.1547 5.411187 9.348429 4.997886 -30.60821 -11.51967 -84.71601 1.943578 12.71 0 0 -21.96278 24.08768 12.44063 -18.61796
-943.0017 95.27786 3018.042 -8.169122 -6.724797 -48.11971 4.874341 -11.84547 -8.906423 -0 5.763577 -0 -21.12897 13.61112 3.44509 -2.197793 8.60808 -3.298032 -0 37.57641 -0 4.94475 -8.157845 13.33504 1.049178 -2.044714 2.863289 0.7746425 16.36725 -7.360987 1.119214 23.035 3.830622 2.79798 -21.12221 4.296246 -7.249257 -22.71345 11.58991 100.5498 12.79361 -20.10468 -0 0 5.418948 -23.64331 5.841346 9.747803 4.868731 -29.88184 -11.19144 -85.04404 2.586111 13.5769 0 0 -21.00977 22.82735 12.37873 -17.06962
-948.3446 95.67619 3022.783 -8.264621 -6.763206 -48.65831 5.150303 -8.583333 -8.406348 -0 5.926758 -0 -20.31166 12.17584 3.177882 -1.683279 5.420456 -2.904188 -0 37.84478 -0 4.426593 -7.311225 13.61619 1.048335 -1.8957 3.319455 0.5688853 16.20307 -6.959926 1.156037 23.02313 3.760208 2.732382 -20.85276 4.267739 -7.101057 -23.03761 11.56974 99.66238 13.18244 -19.03288 -0 0 6.672465 -24.04887 6.136756 10.20738 4.755922 -29.11548 -10.83226 -85.53529 3.220393 14.82133 0 0 -19.7694 21.68879 12.39468 -15.64486
-953.6418 95.99851 3027.531 -8.303866 -6.753502 -49.22614 5.338547 -5.157937 -8.010923 -0 6.289002 -0 -19.71262 10.65649 3.122736 -1.157423 2.02877 -2.666188 -0 36.64934 -0 4.244645 -6.625472 14.11948 0.9941476 -1.805665 3.7925 0.3622369 16.05439 -6.540096 1.170221 23 3.692607 2.675851 -20.68396 4.232324 -6.992354 -23.58795 11.54027 98.69227 13.58021 -17.75291 -0 0 8.199471 -24.38633 6.268279 10.71949 4.655819 -28.34933 -10.47788 -86.17916 3.756265 16.40219 0 0 -18.26035 20.74987 12.48947 -14.45049
-958.8388 96.17944 3032.273 -8.301482 -6.716727 -49.81 5.442365 -1.592565 -7.735038 -0 6.891782 -0 -19.34308 9.135395 3.279167 -0.6403531 -1.512982 -2.564771 -0 34.07346 -0 4.391699 -6.090186 14.81906 0.8901591 -1.774934 4.272104 0.1512455 15.93219 -6.1029 1.163232 22.97165 3.62566 2.628713 -20.60786 4.186574 -6.939426 -24.35303 11.5007 97.67601 13.94196 -16.27618 -0 0 9.960258 -24.67665 6.230655 11.28247 4.564312 -27.59725 -10.1467 -86.96368 4.146257 18.28091 0 0 -16.49241 20.03096 12.66279 -13.51981
-963.8858 96.16497 3036.998 -8.262869 -6.664001 -50.39574 5.472814 2.093613 -7.56112 -0 7.75174 -0 -19.16553 7.63428 3.614883 -0.1465285 -5.174674 -2.583801 -0 30.26735 -0 4.827117 -5.686994 15.68867 0.7403056 -1.797162 4.754551 -0.06572713 15.83301 -5.649141 1.138191 22.94063 3.560615 2.590204 -20.61104 4.133224 -6.936838 -25.3039 11.45047 96.62488 14.25879 -14.62276 -0 0 11.92368 -24.92895 6.042393 11.891 4.479868 -26.85496 -9.837845 -87.87496 4.392591 20.41258 0 0 -14.49015 19.50281 12.91135 -12.81931
-968.7413 95.9164 3041.7 -8.186921 -6.598506 -50.96912 5.439285 5.820233 -7.445117 -0 8.869148 -0 -19.10108 6.151846 4.066462 0.3031685 -8.878815 -2.712671 -0 25.50043 -0 5.470792 -5.402662 16.68765 0.5498543 -1.859348 5.232806 -0.2854034 15.74106 -5.186581 1.100471 22.90749 3.503896 2.559461 -20.67404 4.082801 -6.957789 -26.37699 11.39041 95.5424 14.54981 -12.84652 -0 0 14.03186 -25.13952 5.747344 12.52688 4.403951 -26.11234 -9.538316 -88.88421 4.542929 22.70961 0 0 -12.32383 19.09639 13.22176 -12.26202
-973.384 95.42299 3046.377 -8.082799 -6.531715 -51.51616 5.337392 9.38487 -7.334257 -0 10.28099 -0 -19.04621 4.756472 4.542717 0.6655701 -12.40512 -2.940239 -0 20.26855 -0 6.192059 -5.235067 17.73603 0.3275132 -1.940664 5.681187 -0.5009699 15.63761 -4.735574 1.059744 22.87705 3.467211 2.536656 -20.76268 4.053152 -6.965142 -27.4505 11.3229 94.46389 14.83077 -11.06546 -0 0 16.14366 -25.31197 5.412633 13.15363 4.338382 -25.3703 -9.241402 -89.9203 4.670019 24.98637 0 0 -10.13693 18.72247 13.55743 -11.73812
-977.8309 94.72344 3051.035 -7.995536 -6.508427 -52.02138 5.140148 12.45928 -7.200927 -0 12.14679 -0 -18.91235 3.699019 4.944915 0.8675223 -15.33315 -3.244208 -0 15.34041 -0 6.818205 -5.190979 18.69913 0.08615416 -2.01385 6.042837 -0.7094465 15.518 -4.327211 1.031393 22.86743 3.46417 2.523923 -20.81911 4.064246 -6.937113 -28.34085 11.24905 93.50515 15.06594 -9.470734 -0 0 17.99616 -25.49343 5.111192 13.72256 4.28032 -24.65675 -8.972534 -90.84363 4.830773 26.9295 0 0 -8.136615 18.31134 13.84798 -11.1729
-982.1484 93.92022 3055.7 -8.010666 -6.612176 -52.46267 4.80558 14.70186 -7.075737 -0 14.77189 -0 -18.67976 3.413132 5.208144 0.8249347 -17.14222 -3.589704 -0 11.53564 -0 7.195873 -5.279439 19.42135 -0.1614979 -2.054687 6.239545 -0.9194492 15.40496 -3.990274 1.032725 22.9111 3.503601 2.525122 -20.77286 4.128201 -6.893667 -28.85998 11.16411 92.86333 15.14605 -8.271529 -0 0 19.26511 -25.787 4.88477 14.19424 4.220273 -24.02627 -8.798792 -91.46764 5.020497 28.17669 0 0 -6.51409 17.86279 14.00552 -10.591
-986.434 93.16126 3060.409 -8.203985 -6.918288 -52.80687 4.305928 15.93355 -7.039002 -0 18.42882 -0 -18.4205 4.278573 5.338508 0.4896628 -17.48968 -3.949364 -0 9.234644 -0 7.290092 -5.509973 19.8154 -0.409949 -2.057857 6.213276 -1.145266 15.3386 -3.737182 1.072222 23.03648 3.584296 2.543877 -20.58492 4.241293 -6.889465 -28.92553 11.05932 92.71479 14.9474 -7.582079 -0 0 19.74438 -26.28883 4.71387 14.55835 4.149749 -23.53637 -8.794423 -91.65808 5.163844 28.51625 0 0 -5.34003 17.46375 13.97996 -10.12396
-990.772 92.59093 3065.204 -8.57448 -7.430233 -53.01327 3.654003 16.1886 -7.164072 -0 23.08089 -0 -18.25608 6.334104 5.405649 -0.117207 -16.4053 -4.324317 -0 8.134694 -0 7.214062 -5.896154 19.91685 -0.6608355 -2.042092 5.962823 -1.387769 15.3475 -3.56659 1.141929 23.24365 3.696807 2.581464 -20.285 4.386798 -6.969371 -28.61185 10.93229 93.09211 14.43236 -7.365836 -0 0 19.47137 -26.99528 4.535727 14.82488 4.072317 -23.22325 -8.987575 -91.42281 5.165792 28.01624 0 0 -4.55888 17.24007 13.80091 -9.931662
-995.2026 92.30759 3070.104 -9.039471 -8.073747 -53.04421 2.898157 15.5697 -7.468046 -0 28.32612 -0 -18.28006 9.269698 5.486556 -0.9234037 -14.16408 -4.737316 -0 7.615551 -0 7.131353 -6.456936 19.82991 -0.9142056 -2.03456 5.532485 -1.624038 15.43038 -3.480678 1.223421 23.50274 3.831403 2.63669 -19.9523 4.547723 -7.13216 -28.06684 10.7931 93.884 13.68176 -7.517316 -0 0 18.63958 -27.78991 4.301859 14.99359 4.004715 -23.10133 -9.3464 -90.87829 4.98568 26.91489 0 0 -4.10436 17.27867 13.54931 -10.10354
